<svg width="31" height="24" viewBox="0 0 31 24" fill="none" xmlns="http://www.w3.org/2000/svg">
<path d="M0.750031 15.9644L7.30175 15.5245C7.47417 16.5801 7.73279 17.4598 8.16382 17.9877C8.85348 18.8674 9.88796 19.3952 11.1811 19.3952C12.1293 19.3952 12.9052 19.1313 13.4224 18.6914C13.9397 18.2516 14.1983 17.6358 14.1983 17.02C14.1983 16.4042 13.9397 15.8764 13.4224 15.4365C12.9052 14.9967 11.7845 14.5568 9.88796 14.117C6.87072 13.4132 4.71555 12.5335 3.42244 11.3899C2.12934 10.2463 1.52589 8.75082 1.52589 6.99142C1.6121 5.84781 1.87072 4.79217 2.56038 3.73653C3.25003 2.68089 4.19831 1.88917 5.57762 1.27338C6.95693 0.657587 8.68106 0.393677 11.0087 0.393677C13.8535 0.393677 16.0087 0.921496 17.4742 1.97714C18.9397 3.03277 19.888 4.79217 20.1466 7.07939L13.6811 7.51924C13.5087 6.4636 13.1638 5.75984 12.5604 5.31999C12.0431 4.88014 11.2673 4.61623 10.319 4.61623C9.54313 4.61623 8.93969 4.79217 8.50865 5.14405C8.07762 5.49593 7.9052 5.93578 7.9052 6.37563C7.9052 6.72751 8.07762 7.07939 8.42244 7.3433C8.76727 7.60721 9.54313 7.95909 10.75 8.13503C13.7673 8.75082 15.9224 9.45458 17.2155 10.1583C18.5087 10.8621 19.4569 11.6538 20.0604 12.7095C20.6638 13.6771 20.9224 14.8207 20.9224 16.0523C20.9224 17.5478 20.4914 18.8674 19.7155 20.0989C18.9397 21.3305 17.819 22.2102 16.4397 22.914C15.0604 23.6177 13.25 23.8816 11.0949 23.8816C7.30175 23.8816 4.71555 23.1779 3.25003 21.6824C1.78451 20.1869 0.922444 18.2516 0.750031 15.9644Z" fill="#3D1B00"/>
<path d="M27.6467 0.393677H30.7501L25.1467 23.7937H22.0432L27.6467 0.393677Z" fill="#3D1B00"/>
</svg>
